<?xml version="1.0" encoding="utf-8"?>
<!-- Generator: Adobe Illustrator 16.0.0, SVG Export Plug-In . SVG Version: 6.00 Build 0)  -->
<!DOCTYPE svg PUBLIC "-//W3C//DTD SVG 1.1//EN" "http://www.w3.org/Graphics/SVG/1.1/DTD/svg11.dtd">
<svg version="1.1" id="Layer_2" xmlns="http://www.w3.org/2000/svg" xmlns:xlink="http://www.w3.org/1999/xlink" x="0px" y="0px"
	 width="442.173px" height="545.973px" viewBox="0 0 442.173 545.973" enable-background="new 0 0 442.173 545.973"
	 xml:space="preserve">
<g>
	
		<image overflow="visible" opacity="0.5" width="404" height="524" xlink:href="88A25F6664C75E0.png"  transform="matrix(1 0 0 1 24.1201 15.8945)">
	</image>
	<g>
		<g enable-background="new    ">
			<g>
				<polygon fill="#005278" points="309.865,217.711 320.189,228.034 320.189,228.034 				"/>
			</g>
			<g>
				<polygon fill="#006493" points="320.189,228.034 320.189,228.034 338.404,209.817 				"/>
			</g>
			<g enable-background="new    ">
				<defs>
					<path id="SVGID_1_" enable-background="new    " d="M354.161,210.019L354.161,210.019c-1.605-1.689-3.729-2.847-6.081-3.26
						C350.432,207.172,352.556,208.33,354.161,210.019z"/>
				</defs>
				<clipPath id="SVGID_2_">
					<use xlink:href="#SVGID_1_"  overflow="visible"/>
				</clipPath>
				<g clip-path="url(#SVGID_2_)" enable-background="new    ">
					<path fill="#00608D" d="M348.08,206.758c0.322,0.057,0.641,0.127,0.954,0.211C348.721,206.886,348.402,206.815,348.08,206.758"
						/>
					<path fill="#005D89" d="M349.034,206.97c0.474,0.128,0.937,0.286,1.385,0.473C349.971,207.256,349.508,207.098,349.034,206.97"
						/>
					<path fill="#005A84" d="M350.419,207.443c0.463,0.193,0.911,0.417,1.342,0.67C351.33,207.86,350.882,207.636,350.419,207.443"
						/>
					<path fill="#00577F" d="M351.761,208.113c0.482,0.284,0.943,0.604,1.377,0.958
						C352.704,208.717,352.243,208.397,351.761,208.113"/>
					<path fill="#00537B" d="M353.138,209.07c0.36,0.293,0.702,0.61,1.023,0.948C353.84,209.681,353.498,209.364,353.138,209.07"/>
				</g>
			</g>
			<g>
				<path fill="#004E73" d="M356.144,212.922l47.296,100.738L356.144,212.922z"/>
			</g>
			<g>
				<path fill="#005F8C" d="M39.173,243.523l1.351-2.332L39.173,243.523z"/>
			</g>
			<g enable-background="new    ">
				<defs>
					<path id="SVGID_3_" enable-background="new    " d="M330.19,478.738h7c0,6.073-4.933,10.997-11.008,10.997v-7
						C328.388,482.739,330.196,480.933,330.19,478.738z"/>
				</defs>
				<clipPath id="SVGID_4_">
					<use xlink:href="#SVGID_3_"  overflow="visible"/>
				</clipPath>
				<g clip-path="url(#SVGID_4_)" enable-background="new    ">
					<path fill="#0073AA" d="M330.19,478.738h7c0,0.244-0.008,0.485-0.023,0.726l-6.984-0.463
						C330.188,478.914,330.19,478.826,330.19,478.738"/>
					<path fill="#0070A5" d="M330.183,479.001l6.984,0.463c-0.021,0.309-0.053,0.613-0.098,0.913l-6.922-1.046
						C330.164,479.223,330.176,479.112,330.183,479.001"/>
					<path fill="#006DA0" d="M330.147,479.331l6.922,1.046c-0.051,0.335-0.115,0.664-0.195,0.988l-6.797-1.676
						C330.105,479.571,330.129,479.452,330.147,479.331"/>
					<path fill="#006A9C" d="M330.077,479.689l6.797,1.676c-0.093,0.377-0.205,0.747-0.335,1.108l-6.584-2.383
						C330.002,479.96,330.043,479.826,330.077,479.689"/>
					<path fill="#006797" d="M329.955,480.091l6.584,2.383c-0.155,0.427-0.335,0.842-0.539,1.242l-6.241-3.173
						C329.833,480.396,329.898,480.246,329.955,480.091"/>
					<path fill="#006392" d="M329.759,480.543l6.241,3.173c-0.264,0.519-0.568,1.014-0.908,1.481l-5.665-4.116
						C329.551,480.911,329.662,480.731,329.759,480.543"/>
					<path fill="#00608D" d="M329.427,481.081l5.665,4.116c-0.542,0.744-1.175,1.418-1.883,2.005l-4.469-5.39
						C328.998,481.598,329.229,481.353,329.427,481.081"/>
					<path fill="#005D89" d="M328.74,481.812l4.469,5.39c-1.523,1.264-3.393,2.125-5.444,2.42l-1.008-6.928
						C327.503,482.588,328.185,482.273,328.74,481.812"/>
					<path fill="#00608D" d="M326.757,482.694l1.008,6.928c-0.517,0.074-1.045,0.113-1.582,0.113v-7
						C326.378,482.735,326.569,482.722,326.757,482.694"/>
				</g>
			</g>
			<g>
				<polygon fill="#0075AC" points="326.183,482.735 326.183,489.735 290.642,489.735 286.991,482.735 				"/>
			</g>
			<g>
				<polygon fill="#0077B0" points="286.991,482.735 290.642,489.735 275.423,511.533 269.683,507.525 				"/>
			</g>
			<g enable-background="new    ">
				<defs>
					<path id="SVGID_5_" enable-background="new    " d="M269.683,507.525l5.74,4.008c-2.061,2.942-5.428,4.706-9.019,4.706v-7
						C267.703,509.24,268.932,508.598,269.683,507.525z"/>
				</defs>
				<clipPath id="SVGID_6_">
					<use xlink:href="#SVGID_5_"  overflow="visible"/>
				</clipPath>
				<g clip-path="url(#SVGID_6_)" enable-background="new    ">
					<path fill="#006392" d="M269.683,507.525l5.74,4.008c-0.039,0.055-0.077,0.109-0.117,0.163l-5.665-4.111
						C269.655,507.565,269.669,507.546,269.683,507.525"/>
					<path fill="#00608D" d="M269.641,507.585l5.665,4.111c-0.54,0.743-1.166,1.408-1.857,1.985l-4.485-5.373
						C269.215,508.099,269.443,507.856,269.641,507.585"/>
					<path fill="#005D89" d="M268.963,508.309l4.485,5.373c-1.566,1.307-3.474,2.162-5.509,2.449l-0.979-6.931
						C267.697,509.096,268.392,508.784,268.963,508.309"/>
					<path fill="#00608D" d="M266.96,509.2l0.979,6.931c-0.505,0.072-1.018,0.108-1.535,0.108v-7
						C266.592,509.239,266.777,509.227,266.96,509.2"/>
				</g>
			</g>
			<g>
				<rect x="48.686" y="509.239" fill="#0075AC" width="217.719" height="7"/>
			</g>
			<g enable-background="new    ">
				<defs>
					<path id="SVGID_7_" enable-background="new    " d="M48.686,509.239v7c-6.074,0-10.997-4.931-10.997-11.007h7
						C44.684,507.438,46.489,509.245,48.686,509.239z"/>
				</defs>
				<clipPath id="SVGID_8_">
					<use xlink:href="#SVGID_7_"  overflow="visible"/>
				</clipPath>
				<g clip-path="url(#SVGID_8_)" enable-background="new    ">
					<path fill="#00608D" d="M48.686,509.239v7c-0.386,0-0.767-0.02-1.143-0.059l0.729-6.962
						C48.408,509.232,48.546,509.24,48.686,509.239"/>
					<path fill="#006392" d="M48.272,509.219l-0.729,6.962c-0.573-0.06-1.134-0.163-1.678-0.307l1.799-6.767
						C47.861,509.16,48.064,509.197,48.272,509.219"/>
					<path fill="#006797" d="M47.664,509.107l-1.799,6.767c-0.435-0.115-0.857-0.256-1.269-0.421l2.606-6.498
						C47.353,509.015,47.507,509.066,47.664,509.107"/>
					<path fill="#006A9C" d="M47.203,508.955l-2.606,6.498c-0.354-0.143-0.7-0.303-1.035-0.479l3.266-6.194
						C46.949,508.845,47.075,508.902,47.203,508.955"/>
					<path fill="#006DA0" d="M46.827,508.779l-3.266,6.194c-0.297-0.156-0.585-0.326-0.864-0.508l3.815-5.871
						C46.614,508.661,46.72,508.723,46.827,508.779"/>
					<path fill="#0070A5" d="M46.513,508.595l-3.815,5.871c-0.255-0.167-0.503-0.343-0.743-0.529l4.288-5.535
						C46.33,508.47,46.42,508.534,46.513,508.595"/>
					<path fill="#0073AA" d="M46.242,508.401l-4.288,5.535c-0.222-0.172-0.438-0.353-0.646-0.541l4.698-5.191
						C46.083,508.272,46.161,508.339,46.242,508.401"/>
					<path fill="#0077AE" d="M46.007,508.204l-4.697,5.191c-0.194-0.176-0.383-0.359-0.564-0.548l5.057-4.844
						C45.868,508.073,45.937,508.14,46.007,508.204"/>
					<path fill="#007AB3" d="M45.802,508.004l-5.057,4.844c-0.17-0.179-0.335-0.363-0.494-0.553l5.371-4.492
						C45.68,507.872,45.739,507.939,45.802,508.004"/>
					<path fill="#007DB8" d="M45.622,507.803l-5.371,4.492c-0.15-0.18-0.295-0.364-0.435-0.554l5.646-4.141
						C45.514,507.67,45.566,507.737,45.622,507.803"/>
					<path fill="#0080BD" d="M45.463,507.601l-5.646,4.141c-0.131-0.179-0.257-0.361-0.377-0.548l5.886-3.792
						C45.37,507.469,45.415,507.536,45.463,507.601"/>
					<path fill="#0083C1" d="M45.325,507.401l-5.886,3.792c-0.115-0.18-0.227-0.362-0.331-0.549l6.097-3.443
						C45.243,507.27,45.283,507.336,45.325,507.401"/>
					<path fill="#0087C6" d="M45.205,507.201l-6.097,3.443c-0.103-0.18-0.199-0.363-0.291-0.55l6.281-3.094
						C45.132,507.068,45.168,507.136,45.205,507.201"/>
					<path fill="#008ACB" d="M45.099,507.001l-6.281,3.094c-0.089-0.18-0.173-0.363-0.252-0.549l6.441-2.745
						C45.035,506.868,45.066,506.936,45.099,507.001"/>
					<path fill="#008DCF" d="M45.007,506.801l-6.441,2.745c-0.076-0.179-0.148-0.359-0.215-0.543l6.578-2.399
						C44.953,506.67,44.979,506.736,45.007,506.801"/>
					<path fill="#0090D4" d="M44.929,506.604l-6.578,2.399c-0.065-0.18-0.126-0.361-0.183-0.546l6.694-2.053
						C44.883,506.472,44.904,506.538,44.929,506.604"/>
					<path fill="#0093D9" d="M44.862,506.404l-6.694,2.053c-0.056-0.18-0.105-0.362-0.151-0.547l6.79-1.704
						C44.823,506.272,44.842,506.339,44.862,506.404"/>
					<path fill="#0097DE" d="M44.807,506.206l-6.79,1.704c-0.045-0.18-0.086-0.361-0.122-0.544l6.868-1.358
						C44.775,506.074,44.79,506.141,44.807,506.206"/>
					<path fill="#009AE2" d="M44.763,506.008l-6.868,1.358c-0.038-0.193-0.07-0.388-0.098-0.584l6.93-0.986
						C44.737,505.867,44.749,505.938,44.763,506.008"/>
					<path fill="#009DE7" d="M44.727,505.796l-6.93,0.986c-0.071-0.506-0.108-1.023-0.108-1.55h7
						C44.688,505.424,44.701,505.611,44.727,505.796"/>
				</g>
			</g>
			<g>
				<rect x="37.688" y="249.04" fill="#009DE7" width="7" height="256.193"/>
			</g>
			<g enable-background="new    ">
				<defs>
					<path id="SVGID_9_" enable-background="new    " d="M44.688,249.04h-7c0-1.934,0.512-3.843,1.484-5.517l6.053,3.515
						C44.874,247.644,44.688,248.336,44.688,249.04z"/>
				</defs>
				<clipPath id="SVGID_10_">
					<use xlink:href="#SVGID_9_"  overflow="visible"/>
				</clipPath>
				<g clip-path="url(#SVGID_10_)" enable-background="new    ">
					<path fill="#009DE7" d="M44.688,249.04h-7c0-1.934,0.512-3.843,1.484-5.517l6.053,3.515
						C44.874,247.644,44.688,248.336,44.688,249.04"/>
				</g>
			</g>
			<g>
				<polygon fill="#009DE7" points="45.226,247.038 39.173,243.523 40.523,241.191 46.58,244.7 				"/>
			</g>
			<g enable-background="new    ">
				<defs>
					<path id="SVGID_11_" enable-background="new    " d="M46.58,244.7l-6.057-3.509c19.61-33.768,44.333-50.777,63.558-59.336
						l15.399,0.806C88.779,196.328,65.327,212.442,46.58,244.7z"/>
				</defs>
				<clipPath id="SVGID_12_">
					<use xlink:href="#SVGID_11_"  overflow="visible"/>
				</clipPath>
				<g clip-path="url(#SVGID_12_)" enable-background="new    ">
					<path fill="#009DE7" d="M46.58,244.7l-6.057-3.509c4.902-8.442,10.124-15.836,15.5-22.313l5.539,4.442
						C56.248,229.58,51.267,236.636,46.58,244.7"/>
					<path fill="#28ACEB" d="M61.562,223.32l-5.539-4.442c16.128-19.431,33.64-30.603,48.058-37.022l15.399,0.806
						C96.454,192.912,77.506,204.538,61.562,223.32"/>
				</g>
			</g>
			<g enable-background="new    ">
				<defs>
					<path id="SVGID_13_" enable-background="new    " d="M119.48,182.662l-15.399-0.806
						c-24.417-14.094-40.896-40.456-40.896-70.614c0-44.947,36.559-81.504,81.505-81.504c44.937,0,81.494,36.558,81.494,81.504
						c0,40.688-29.97,74.501-68.993,80.531l-7-6.001c41.594-6.427,68.992-37.338,68.993-74.53
						c0.008-41.07-33.435-74.512-74.494-74.504c-41.07-0.008-74.513,33.435-74.505,74.504
						C70.185,138.801,85.246,162.901,119.48,182.662z"/>
				</defs>
				<clipPath id="SVGID_14_">
					<use xlink:href="#SVGID_13_"  overflow="visible"/>
				</clipPath>
				<g clip-path="url(#SVGID_14_)" enable-background="new    ">
					<path fill="#006DA0" d="M119.48,182.662l-15.399-0.806c-0.438-0.252-0.873-0.509-1.305-0.77l14.882,0.509
						C118.26,181.952,118.867,182.308,119.48,182.662"/>
					<path fill="#0070A5" d="M117.658,181.595l-14.882-0.509c-0.704-0.424-1.4-0.857-2.09-1.302l14.086,0.058
						C115.719,180.43,116.681,181.015,117.658,181.595"/>
					<path fill="#0073AA" d="M114.772,179.842l-14.086-0.058c-0.819-0.527-1.629-1.069-2.429-1.625l13.211-0.428
						C112.548,178.439,113.648,179.144,114.772,179.842"/>
					<path fill="#0077AE" d="M111.469,177.73l-13.211,0.428c-0.897-0.625-1.783-1.267-2.654-1.926l12.313-0.913
						C109.073,176.13,110.257,176.933,111.469,177.73"/>
					<path fill="#007AB3" d="M107.917,175.32l-12.313,0.913c-1.024-0.775-2.03-1.574-3.017-2.396l11.372-1.399
						C105.24,173.407,106.56,174.368,107.917,175.32"/>
					<path fill="#007DB8" d="M103.959,172.437l-11.372,1.399c-1.201-1-2.373-2.034-3.514-3.101l10.38-1.88
						C100.898,170.062,102.4,171.256,103.959,172.437"/>
					<path fill="#0080BD" d="M99.453,168.855l-10.38,1.88c-1.405-1.313-2.765-2.676-4.075-4.084l9.373-2.313
						C95.98,165.863,97.674,167.369,99.453,168.855"/>
					<path fill="#0083C1" d="M94.371,164.338l-9.373,2.313c-1.624-1.747-3.173-3.565-4.642-5.449l8.418-2.627
						C90.512,160.525,92.376,162.446,94.371,164.338"/>
					<path fill="#0087C6" d="M88.774,158.575l-8.418,2.627c-1.64-2.104-3.179-4.291-4.609-6.553l7.682-2.717
						C85.054,154.182,86.835,156.396,88.774,158.575"/>
					<path fill="#008ACB" d="M83.429,151.932l-7.682,2.717c-1.367-2.161-2.635-4.39-3.798-6.681l7.247-2.583
						C80.467,147.6,81.877,149.782,83.429,151.932"/>
					<path fill="#008DCF" d="M79.196,145.385l-7.247,2.583c-1.003-1.976-1.929-3.999-2.771-6.063l7.038-2.32
						C77.107,141.542,78.1,143.476,79.196,145.385"/>
					<path fill="#0090D4" d="M76.217,139.585l-7.038,2.32c-0.72-1.762-1.378-3.555-1.975-5.375l6.952-2.005
						C74.771,136.228,75.456,137.915,76.217,139.585"/>
					<path fill="#0093D9" d="M74.156,134.524l-6.952,2.005c-0.521-1.59-0.994-3.201-1.417-4.832l6.929-1.673
						C73.142,131.537,73.621,133.037,74.156,134.524"/>
					<path fill="#0097DE" d="M72.716,130.024l-6.929,1.673c-0.385-1.481-0.729-2.979-1.031-4.491l6.936-1.334
						C71.988,127.266,72.329,128.65,72.716,130.024"/>
					<path fill="#009AE2" d="M71.691,125.872l-6.936,1.334c-0.281-1.41-0.526-2.833-0.733-4.268l6.955-0.992
						C71.177,123.264,71.415,124.572,71.691,125.872"/>
					<path fill="#009DE7" d="M70.978,121.946l-6.955,0.992c-0.552-3.82-0.838-7.726-0.838-11.697
						c0-44.947,36.559-81.504,81.505-81.504c24.703,0,46.874,11.048,61.831,28.464l-5.313,4.559
						c-13.676-15.923-33.946-26.028-56.518-26.023c-41.07-0.008-74.513,33.435-74.505,74.504
						C70.185,114.871,70.446,118.439,70.978,121.946"/>
					<path fill="#009AE2" d="M201.207,62.761l5.313-4.559c0.914,1.063,1.801,2.151,2.659,3.261l-5.541,4.28
						C202.854,64.728,202.043,63.733,201.207,62.761"/>
					<path fill="#0097DE" d="M203.639,65.743l5.541-4.28c0.861,1.113,1.694,2.249,2.498,3.407l-5.756,3.987
						C205.188,67.799,204.426,66.76,203.639,65.743"/>
					<path fill="#0093D9" d="M205.922,68.857l5.756-3.987c0.808,1.164,1.587,2.351,2.335,3.558l-5.955,3.683
						C207.373,71.007,206.661,69.922,205.922,68.857"/>
					<path fill="#0090D4" d="M208.058,72.11l5.955-3.683c0.76,1.227,1.488,2.475,2.184,3.743l-6.143,3.361
						C209.418,74.372,208.752,73.231,208.058,72.11"/>
					<path fill="#008DCF" d="M210.054,75.531l6.143-3.361c0.704,1.284,1.375,2.589,2.011,3.915l-6.314,3.025
						C211.312,77.898,210.698,76.706,210.054,75.531"/>
					<path fill="#008ACB" d="M211.893,79.11l6.314-3.025c0.645,1.343,1.254,2.706,1.825,4.089l-6.471,2.674
						C213.039,81.584,212.482,80.337,211.893,79.11"/>
					<path fill="#0087C6" d="M213.562,82.848l6.471-2.674c0.587,1.416,1.134,2.853,1.641,4.308l-6.611,2.304
						C214.598,85.455,214.098,84.142,213.562,82.848"/>
					<path fill="#0083C1" d="M215.062,86.785l6.611-2.304c0.521,1.496,1,3.012,1.436,4.546l-6.734,1.913
						C215.977,89.539,215.538,88.153,215.062,86.785"/>
					<path fill="#0080BD" d="M216.374,90.941l6.734-1.913c0.447,1.579,0.849,3.176,1.201,4.792l-6.837,1.501
						C217.149,93.844,216.783,92.383,216.374,90.941"/>
					<path fill="#007DB8" d="M217.473,95.32l6.837-1.5c0.366,1.672,0.68,3.363,0.94,5.072l-6.918,1.064
						C218.094,98.394,217.807,96.848,217.473,95.32"/>
					<path fill="#007AB3" d="M218.332,99.955l6.918-1.064c0.273,1.79,0.488,3.599,0.643,5.425l-6.975,0.597
						C218.777,103.245,218.581,101.591,218.332,99.955"/>
					<path fill="#0077AE" d="M218.918,104.914l6.975-0.597c0.164,1.949,0.261,3.917,0.285,5.902l-7,0.088
						C219.156,108.493,219.068,106.694,218.918,104.914"/>
					<path fill="#0073AA" d="M219.178,110.307l7-0.088c0.004,0.34,0.006,0.682,0.006,1.023c0,1.784-0.058,3.556-0.171,5.312
						l-6.986-0.457c0.104-1.605,0.157-3.225,0.157-4.855C219.184,110.93,219.182,110.618,219.178,110.307"/>
					<path fill="#0070A5" d="M219.026,116.097l6.986,0.457c-0.148,2.299-0.394,4.573-0.729,6.817l-6.929-1.042
						C218.665,120.278,218.89,118.199,219.026,116.097"/>
					<path fill="#006DA0" d="M218.354,122.33l6.929,1.042c-0.394,2.624-0.912,5.207-1.55,7.744l-6.818-1.703
						C217.51,127.091,217.99,124.729,218.354,122.33"/>
					<path fill="#006A9C" d="M216.915,129.412l6.818,1.703c-0.779,3.098-1.736,6.126-2.859,9.074l-6.639-2.473
						C215.293,135.017,216.188,132.246,216.915,129.412"/>
					<path fill="#006797" d="M214.235,137.716l6.639,2.473c-1.761,4.617-3.93,9.035-6.462,13.208l-6.312-3.572
						C210.524,145.993,212.579,141.944,214.235,137.716"/>
					<path fill="#006392" d="M208.1,149.825l6.312,3.572c-10.036,16.536-25.788,29.236-44.493,35.338l-6.319-6.014
						C183.077,176.774,198.491,165.008,208.1,149.825"/>
					<path fill="#00608D" d="M163.6,182.721l6.319,6.014c-3.997,1.304-8.13,2.307-12.369,2.982l-6.977-6.005
						C155.089,184.996,159.437,183.991,163.6,182.721"/>
					<path fill="#005D89" d="M150.573,185.711l6.977,6.005c-0.12,0.019-0.239,0.038-0.359,0.056l-7-6.001
						C150.318,185.752,150.445,185.732,150.573,185.711"/>
				</g>
			</g>
			<g>
				<polygon fill="#008CCD" points="150.19,185.771 157.19,191.773 157.19,407.232 150.19,414.232 				"/>
			</g>
			<g>
				<polygon fill="#009DE7" points="150.19,414.232 157.19,407.232 227.517,407.232 244.558,414.232 				"/>
			</g>
			<g>
				<polygon fill="#008ED1" points="244.558,414.232 227.517,407.232 175.37,355.699 180.29,350.721 				"/>
			</g>
			<g enable-background="new    ">
				<defs>
					<path id="SVGID_15_" enable-background="new    " d="M180.29,350.721l-4.92,4.979c-4.294-4.239-4.366-11.161-0.154-15.489
						l5.017,4.883C178.706,346.655,178.732,349.189,180.29,350.721z"/>
				</defs>
				<clipPath id="SVGID_16_">
					<use xlink:href="#SVGID_15_"  overflow="visible"/>
				</clipPath>
				<g clip-path="url(#SVGID_16_)" enable-background="new    ">
					<path fill="#0077AE" d="M180.29,350.721l-4.92,4.979c-0.076-0.076-0.152-0.152-0.226-0.229l5.063-4.832
						C180.235,350.665,180.263,350.693,180.29,350.721"/>
					<path fill="#007AB3" d="M180.208,350.638l-5.063,4.832c-0.172-0.18-0.336-0.363-0.493-0.551l5.379-4.48
						C180.087,350.506,180.146,350.572,180.208,350.638"/>
					<path fill="#007DB8" d="M180.03,350.438l-5.379,4.48c-0.149-0.179-0.293-0.362-0.429-0.548l5.651-4.132
						C179.924,350.307,179.976,350.373,180.03,350.438"/>
					<path fill="#0080BD" d="M179.874,350.239l-5.651,4.132c-0.13-0.178-0.255-0.357-0.372-0.541l5.889-3.786
						C179.782,350.11,179.827,350.176,179.874,350.239"/>
					<path fill="#0083C1" d="M179.739,350.044l-5.889,3.786c-0.115-0.179-0.225-0.359-0.328-0.543l6.098-3.44
						C179.657,349.913,179.697,349.979,179.739,350.044"/>
					<path fill="#0087C6" d="M179.62,349.847l-6.098,3.44c-0.102-0.18-0.198-0.361-0.289-0.545l6.282-3.094
						C179.548,349.715,179.583,349.781,179.62,349.847"/>
					<path fill="#008ACB" d="M179.516,349.648l-6.282,3.094c-0.088-0.18-0.171-0.361-0.25-0.544l6.441-2.747
						C179.453,349.518,179.483,349.583,179.516,349.648"/>
					<path fill="#008DCF" d="M179.425,349.451l-6.44,2.747c-0.077-0.18-0.148-0.361-0.216-0.544l6.578-2.401
						C179.371,349.319,179.396,349.386,179.425,349.451"/>
					<path fill="#0090D4" d="M179.347,349.253l-6.578,2.401c-0.065-0.182-0.127-0.364-0.184-0.548l6.695-2.053
						C179.3,349.12,179.322,349.187,179.347,349.253"/>
					<path fill="#0093D9" d="M179.28,349.054l-6.695,2.053c-0.055-0.182-0.106-0.365-0.152-0.549l6.792-1.704
						C179.241,348.921,179.26,348.987,179.28,349.054"/>
					<path fill="#0097DE" d="M179.225,348.854l-6.792,1.704c-0.045-0.183-0.086-0.366-0.122-0.55l6.869-1.354
						C179.193,348.721,179.208,348.787,179.225,348.854"/>
					<path fill="#009AE2" d="M179.18,348.653l-6.869,1.354c-0.038-0.19-0.07-0.381-0.098-0.572l6.932-0.99
						C179.154,348.515,179.166,348.585,179.18,348.653"/>
					<path fill="#009DE7" d="M179.145,348.445l-6.932,0.99c-0.463-3.258,0.533-6.688,3.003-9.226l5.017,4.883
						C179.337,346.009,178.977,347.259,179.145,348.445"/>
				</g>
			</g>
			<g>
				
					<rect x="233.715" y="196.118" transform="matrix(0.7166 0.6975 -0.6975 0.7166 263.5423 -85.6876)" fill="#009DE7" width="7.001" height="170.686"/>
			</g>
			<g enable-background="new    ">
				<defs>
					<path id="SVGID_17_" enable-background="new    " d="M299.216,222.708l-5.019-4.879c2.051-2.116,4.868-3.312,7.812-3.331
						c3.075-0.002,5.83,1.186,7.856,3.213l-4.951,4.948c-0.728-0.729-1.716-1.159-2.882-1.162
						C300.984,221.504,299.96,221.939,299.216,222.708z"/>
				</defs>
				<clipPath id="SVGID_18_">
					<use xlink:href="#SVGID_17_"  overflow="visible"/>
				</clipPath>
				<g clip-path="url(#SVGID_18_)" enable-background="new    ">
					<path fill="#009DE7" d="M299.216,222.708l-5.019-4.879c2.051-2.116,4.868-3.312,7.812-3.331
						c3.075-0.002,5.83,1.186,7.856,3.213l-4.951,4.948c-0.728-0.729-1.716-1.159-2.882-1.162
						C300.984,221.504,299.96,221.939,299.216,222.708"/>
				</g>
			</g>
			<g>
				<polygon fill="#009DE7" points="304.914,222.66 309.865,217.711 320.189,228.034 320.189,237.934 				"/>
			</g>
			<g>
				<polygon fill="#009DE7" points="320.189,237.934 320.189,228.034 338.404,209.817 343.354,214.767 				"/>
			</g>
			<g enable-background="new    ">
				<defs>
					<path id="SVGID_19_" enable-background="new    " d="M346.899,213.763c0.003-0.024-0.004-0.06-0.023-0.109
						c0.074-0.351,0.096-0.464,0.163-0.876C346.99,213.106,346.944,213.435,346.899,213.763z"/>
				</defs>
				<clipPath id="SVGID_20_">
					<use xlink:href="#SVGID_19_"  overflow="visible"/>
				</clipPath>
				<g clip-path="url(#SVGID_20_)" enable-background="new    ">
					<path fill="#009DE7" d="M346.899,213.763l0.126-0.949c0.014-0.02,0.019-0.048,0.013-0.089l-0.162,0.929
						C346.896,213.703,346.902,213.739,346.899,213.763"/>
				</g>
			</g>
			<g enable-background="new    ">
				<defs>
					<path id="SVGID_21_" enable-background="new    " d="M347.039,212.778c-0.049,0.328-0.095,0.657-0.14,0.985
						c-0.022,0.167-0.512-0.168-0.712-0.168c-1.059,0.001-2.076,0.415-2.833,1.172l-4.95-4.95c2.085-2.085,4.888-3.222,7.783-3.222
						c0.628,0,1.261,0.054,1.893,0.163c3.527,0.621,6.542,2.915,8.063,6.164l-6.34,2.968c-0.551-1.176-1.645-2.01-2.928-2.236
						C346.946,213.322,346.97,213.207,347.039,212.778z"/>
				</defs>
				<clipPath id="SVGID_22_">
					<use xlink:href="#SVGID_21_"  overflow="visible"/>
				</clipPath>
				<g clip-path="url(#SVGID_22_)" enable-background="new    ">
					<path fill="#009DE7" d="M343.354,214.767l-4.95-4.95c2.085-2.085,4.888-3.222,7.783-3.222c0.628,0,1.261,0.054,1.893,0.163
						c2.538,0.447,4.811,1.759,6.452,3.671l-5.312,4.558c-0.596-0.693-1.421-1.17-2.344-1.333c0.151,0.382-0.458-0.059-0.688-0.059
						C345.129,213.596,344.111,214.01,343.354,214.767"/>
					<path fill="#009AE2" d="M349.22,214.987l5.312-4.558c0.121,0.141,0.239,0.286,0.354,0.434l-5.537,4.282
						C349.307,215.091,349.264,215.039,349.22,214.987"/>
					<path fill="#0097DE" d="M349.349,215.145l5.537-4.282c0.115,0.148,0.227,0.3,0.334,0.455l-5.75,3.992
						C349.431,215.253,349.39,215.199,349.349,215.145"/>
					<path fill="#0093D9" d="M349.47,215.31l5.75-3.992c0.108,0.156,0.213,0.315,0.313,0.477l-5.95,3.688
						C349.547,215.424,349.509,215.366,349.47,215.31"/>
					<path fill="#0090D4" d="M349.583,215.482l5.95-3.688c0.102,0.164,0.199,0.331,0.292,0.501l-6.137,3.368
						C349.655,215.603,349.62,215.542,349.583,215.482"/>
					<path fill="#008DCF" d="M349.688,215.664l6.137-3.368c0.095,0.172,0.186,0.348,0.271,0.527l-6.31,3.032
						C349.756,215.79,349.724,215.727,349.688,215.664"/>
					<path fill="#008ACB" d="M349.787,215.854l6.31-3.032c0.016,0.033,0.031,0.066,0.047,0.1l-6.34,2.968
						C349.799,215.879,349.793,215.867,349.787,215.854"/>
				</g>
			</g>
			<g>
				<polygon fill="#009DE7" points="349.804,215.891 356.144,212.922 403.439,313.66 397.103,316.635 				"/>
			</g>
			<g>
				<polygon fill="#009DE7" points="304.822,415.629 299.506,411.075 380.506,316.575 388.766,317.695 				"/>
			</g>
			<g>
				<polygon fill="#009DE7" points="388.766,317.695 380.506,316.575 342.886,236.449 344.985,224.45 				"/>
			</g>
			<g>
				<polygon fill="#0074AB" points="344.985,224.45 342.886,236.449 327.964,251.371 323.015,246.421 				"/>
			</g>
			<g enable-background="new    ">
				<defs>
					<path id="SVGID_23_" enable-background="new    " d="M323.015,246.421l4.949,4.95c-2.061,2.062-4.859,3.222-7.774,3.222
						c-2.916,0-5.717-1.161-7.786-3.222l4.94-4.959c0.76,0.756,1.788,1.182,2.846,1.181
						C321.244,247.594,322.267,247.17,323.015,246.421z"/>
				</defs>
				<clipPath id="SVGID_24_">
					<use xlink:href="#SVGID_23_"  overflow="visible"/>
				</clipPath>
				<g clip-path="url(#SVGID_24_)" enable-background="new    ">
					<path fill="#00608D" d="M323.015,246.421l4.949,4.95c-0.236,0.236-0.481,0.46-0.736,0.672l-4.48-5.378
						C322.84,246.588,322.929,246.507,323.015,246.421"/>
					<path fill="#005D89" d="M322.747,246.666l4.48,5.378c-1.571,1.31-3.477,2.154-5.496,2.441l-0.983-6.931
						C321.481,247.45,322.176,247.142,322.747,246.666"/>
					<path fill="#00608D" d="M320.748,247.554l0.983,6.931c-0.508,0.072-1.023,0.109-1.542,0.109c-0.382,0-0.762-0.02-1.138-0.059
						l0.725-6.962c0.137,0.014,0.274,0.021,0.413,0.021C320.377,247.593,320.563,247.58,320.748,247.554"/>
					<path fill="#006392" d="M319.776,247.572l-0.725,6.962c-0.571-0.06-1.136-0.164-1.687-0.31l1.796-6.766
						C319.363,247.512,319.568,247.55,319.776,247.572"/>
					<path fill="#006797" d="M319.161,247.458l-1.796,6.766c-0.438-0.116-0.866-0.259-1.286-0.428l2.612-6.495
						C318.845,247.364,319.002,247.416,319.161,247.458"/>
					<path fill="#006A9C" d="M318.691,247.302l-2.612,6.495c-0.354-0.143-0.702-0.304-1.041-0.483l3.272-6.188
						C318.435,247.19,318.562,247.25,318.691,247.302"/>
					<path fill="#006DA0" d="M318.311,247.125l-3.272,6.188c-0.298-0.158-0.589-0.33-0.873-0.515l3.825-5.863
						C318.095,247.004,318.201,247.066,318.311,247.125"/>
					<path fill="#0070A5" d="M317.99,246.936l-3.825,5.863c-0.255-0.166-0.503-0.343-0.744-0.531l4.296-5.526
						C317.806,246.81,317.896,246.875,317.99,246.936"/>
					<path fill="#0073AA" d="M317.717,246.741l-4.296,5.526c-0.221-0.171-0.436-0.352-0.644-0.541l4.704-5.184
						C317.558,246.612,317.636,246.678,317.717,246.741"/>
					<path fill="#0077AE" d="M317.481,246.542l-4.704,5.184c-0.127-0.115-0.252-0.233-0.374-0.355l4.94-4.959
						C317.389,246.457,317.435,246.5,317.481,246.542"/>
				</g>
			</g>
			<g>
				<polygon fill="#008FD2" points="317.344,246.412 312.403,251.371 302.198,241.165 302.128,231.195 				"/>
			</g>
			<g>
				<polygon fill="#0075AB" points="302.128,231.195 302.198,241.165 198.598,347.725 188.739,347.823 				"/>
			</g>
			<g>
				<polygon fill="#009DE7" points="188.739,347.823 198.598,347.725 262.021,410.41 257.102,415.389 				"/>
			</g>
			<g enable-background="new    ">
				<defs>
					<path id="SVGID_25_" enable-background="new    " d="M257.102,415.389l4.92-4.979c3.177,3.141,4.14,7.884,2.448,12.007
						c-1.692,4.12-5.716,6.821-10.179,6.821v-7c1.62,0.002,3.085-0.979,3.703-2.479
						C258.608,418.253,258.258,416.531,257.102,415.389z"/>
				</defs>
				<clipPath id="SVGID_26_">
					<use xlink:href="#SVGID_25_"  overflow="visible"/>
				</clipPath>
				<g clip-path="url(#SVGID_26_)" enable-background="new    ">
					<path fill="#009DE7" d="M257.102,415.389l4.92-4.979c0.216,0.213,0.421,0.433,0.615,0.66l-5.312,4.559
						C257.254,415.546,257.18,415.466,257.102,415.389"/>
					<path fill="#009AE2" d="M257.325,415.629l5.312-4.559c0.123,0.143,0.241,0.287,0.355,0.436l-5.538,4.281
						C257.413,415.733,257.37,415.681,257.325,415.629"/>
					<path fill="#0097DE" d="M257.454,415.787l5.538-4.281c0.116,0.149,0.228,0.302,0.335,0.456l-5.751,3.991
						C257.537,415.897,257.497,415.842,257.454,415.787"/>
					<path fill="#0093D9" d="M257.576,415.953l5.751-3.991c0.108,0.157,0.214,0.316,0.313,0.479l-5.95,3.687
						C257.654,416.068,257.616,416.011,257.576,415.953"/>
					<path fill="#0090D4" d="M257.69,416.127l5.95-3.687c0.103,0.166,0.201,0.333,0.294,0.503l-6.137,3.367
						C257.764,416.248,257.729,416.188,257.69,416.127"/>
					<path fill="#008DCF" d="M257.798,416.311l6.137-3.367c0.096,0.175,0.187,0.351,0.272,0.529l-6.311,3.029
						C257.865,416.438,257.833,416.373,257.798,416.311"/>
					<path fill="#008ACB" d="M257.896,416.502l6.311-3.029c0.088,0.184,0.171,0.369,0.248,0.557l-6.468,2.676
						C257.959,416.637,257.929,416.569,257.896,416.502"/>
					<path fill="#0087C6" d="M257.987,416.705l6.468-2.676c0.08,0.193,0.154,0.389,0.224,0.586l-6.61,2.303
						C258.044,416.846,258.017,416.775,257.987,416.705"/>
					<path fill="#0083C1" d="M258.068,416.918l6.61-2.303c0.071,0.204,0.136,0.41,0.195,0.618l-6.734,1.909
						C258.118,417.067,258.095,416.992,258.068,416.918"/>
					<path fill="#0080BD" d="M258.14,417.143l6.734-1.909c0.062,0.217,0.116,0.436,0.164,0.654l-6.838,1.493
						C258.183,417.301,258.162,417.222,258.14,417.143"/>
					<path fill="#007DB8" d="M258.2,417.381l6.838-1.493c0.051,0.23,0.093,0.461,0.129,0.693l-6.92,1.052
						C258.233,417.548,258.218,417.464,258.2,417.381"/>
					<path fill="#007AB3" d="M258.247,417.633l6.92-1.052c0.037,0.245,0.066,0.49,0.087,0.737l-6.976,0.582
						C258.271,417.811,258.261,417.722,258.247,417.633"/>
					<path fill="#0077AE" d="M258.278,417.9l6.976-0.582c0.022,0.263,0.035,0.526,0.038,0.791l-6.999,0.079
						C258.291,418.092,258.286,417.996,258.278,417.9"/>
					<path fill="#0073AA" d="M258.293,418.188l6.999-0.079c0.004,0.281-0.004,0.564-0.022,0.847l-6.985-0.459
						C258.291,418.394,258.294,418.291,258.293,418.188"/>
					<path fill="#0070A5" d="M258.284,418.497l6.985,0.459c-0.02,0.304-0.052,0.607-0.097,0.91l-6.924-1.038
						C258.266,418.718,258.277,418.607,258.284,418.497"/>
					<path fill="#006DA0" d="M258.249,418.828l6.924,1.038c-0.051,0.336-0.116,0.671-0.198,1.003l-6.797-1.675
						C258.207,419.072,258.231,418.951,258.249,418.828"/>
					<path fill="#006A9C" d="M258.178,419.194l6.797,1.675c-0.092,0.372-0.203,0.74-0.335,1.105l-6.584-2.378
						C258.104,419.464,258.145,419.329,258.178,419.194"/>
					<path fill="#006797" d="M258.056,419.597l6.584,2.378c-0.053,0.148-0.11,0.296-0.17,0.442
						c-0.114,0.277-0.238,0.548-0.373,0.812l-6.238-3.175c0.049-0.096,0.094-0.194,0.136-0.295
						C258.016,419.705,258.036,419.651,258.056,419.597"/>
					<path fill="#006392" d="M257.858,420.054l6.238,3.175c-0.264,0.519-0.565,1.01-0.902,1.473l-5.665-4.111
						C257.651,420.422,257.762,420.242,257.858,420.054"/>
					<path fill="#00608D" d="M257.529,420.59l5.665,4.111c-0.537,0.739-1.161,1.404-1.854,1.982l-4.486-5.373
						C257.105,421.101,257.333,420.859,257.529,420.59"/>
					<path fill="#005D89" d="M256.854,421.311l4.486,5.373c-1.551,1.292-3.447,2.152-5.491,2.444l-0.992-6.93
						C255.599,422.093,256.289,421.781,256.854,421.311"/>
					<path fill="#00608D" d="M254.856,422.198l0.992,6.93c-0.512,0.073-1.031,0.11-1.558,0.11v-7
						C254.481,422.238,254.671,422.225,254.856,422.198"/>
				</g>
			</g>
			<g>
				<rect x="146.183" y="422.238" fill="#0075AC" width="108.108" height="7"/>
			</g>
			<g enable-background="new    ">
				<defs>
					<path id="SVGID_27_" enable-background="new    " d="M146.183,422.238v7c-6.075,0-10.998-4.923-10.998-10.999h7
						C142.181,420.442,143.981,422.242,146.183,422.238z"/>
				</defs>
				<clipPath id="SVGID_28_">
					<use xlink:href="#SVGID_27_"  overflow="visible"/>
				</clipPath>
				<g clip-path="url(#SVGID_28_)" enable-background="new    ">
					<path fill="#00608D" d="M146.183,422.238v7c-0.387,0-0.768-0.02-1.144-0.059l0.729-6.962
						C145.904,422.231,146.043,422.238,146.183,422.238"/>
					<path fill="#006392" d="M145.768,422.218l-0.729,6.962c-0.575-0.06-1.137-0.163-1.682-0.308l1.801-6.766
						C145.355,422.158,145.56,422.196,145.768,422.218"/>
					<path fill="#006797" d="M145.158,422.106l-1.801,6.766c-0.435-0.115-0.858-0.256-1.27-0.421l2.608-6.498
						C144.846,422.013,145,422.064,145.158,422.106"/>
					<path fill="#006A9C" d="M144.696,421.953l-2.608,6.498c-0.354-0.143-0.7-0.303-1.036-0.48l3.269-6.192
						C144.442,421.843,144.567,421.901,144.696,421.953"/>
					<path fill="#006DA0" d="M144.32,421.778l-3.269,6.192c-0.296-0.156-0.584-0.326-0.863-0.508l3.817-5.87
						C144.107,421.659,144.212,421.722,144.32,421.778"/>
					<path fill="#0070A5" d="M144.006,421.593l-3.817,5.87c-0.256-0.166-0.503-0.343-0.743-0.528l4.29-5.534
						C143.822,421.469,143.913,421.532,144.006,421.593"/>
					<path fill="#0073AA" d="M143.735,421.4l-4.29,5.534c-0.222-0.173-0.437-0.353-0.645-0.541l4.7-5.19
						C143.576,421.272,143.654,421.338,143.735,421.4"/>
					<path fill="#0077AE" d="M143.501,421.203l-4.7,5.19c-0.194-0.176-0.382-0.358-0.562-0.548l5.058-4.842
						C143.361,421.073,143.43,421.14,143.501,421.203"/>
					<path fill="#007AB3" d="M143.296,421.004l-5.058,4.842c-0.171-0.178-0.335-0.361-0.494-0.551l5.372-4.491
						C143.174,420.872,143.233,420.939,143.296,421.004"/>
					<path fill="#007DB8" d="M143.116,420.804l-5.372,4.491c-0.15-0.18-0.295-0.364-0.434-0.554l5.647-4.14
						C143.009,420.671,143.062,420.738,143.116,420.804"/>
					<path fill="#0080BD" d="M142.958,420.602l-5.647,4.14c-0.131-0.178-0.257-0.36-0.376-0.547l5.886-3.792
						C142.864,420.471,142.91,420.537,142.958,420.602"/>
					<path fill="#0083C1" d="M142.82,420.402l-5.886,3.792c-0.116-0.179-0.227-0.361-0.332-0.548l6.098-3.443
						C142.738,420.271,142.778,420.338,142.82,420.402"/>
					<path fill="#0087C6" d="M142.7,420.203l-6.098,3.443c-0.102-0.18-0.198-0.362-0.29-0.549l6.282-3.094
						C142.628,420.071,142.663,420.138,142.7,420.203"/>
					<path fill="#008ACB" d="M142.595,420.004l-6.282,3.094c-0.089-0.18-0.173-0.362-0.252-0.548l6.442-2.745
						C142.531,419.872,142.562,419.938,142.595,420.004"/>
					<path fill="#008DCF" d="M142.503,419.805l-6.442,2.745c-0.075-0.179-0.146-0.359-0.214-0.542l6.578-2.4
						C142.449,419.674,142.475,419.739,142.503,419.805"/>
					<path fill="#0090D4" d="M142.425,419.607l-6.578,2.4c-0.065-0.18-0.126-0.361-0.183-0.545l6.694-2.054
						C142.379,419.477,142.401,419.542,142.425,419.607"/>
					<path fill="#0093D9" d="M142.358,419.409l-6.694,2.054c-0.055-0.181-0.105-0.363-0.151-0.547l6.79-1.705
						C142.319,419.277,142.338,419.344,142.358,419.409"/>
					<path fill="#0097DE" d="M142.303,419.211l-6.79,1.705c-0.045-0.18-0.085-0.361-0.121-0.544l6.867-1.358
						C142.272,419.08,142.287,419.146,142.303,419.211"/>
					<path fill="#009AE2" d="M142.259,419.014l-6.867,1.358c-0.038-0.192-0.071-0.387-0.099-0.583l6.931-0.987
						C142.233,418.873,142.245,418.943,142.259,419.014"/>
					<path fill="#009DE7" d="M142.224,418.802l-6.931,0.987c-0.071-0.507-0.108-1.023-0.108-1.55h7
						C142.185,418.43,142.197,418.618,142.224,418.802"/>
				</g>
			</g>
			<g>
				<polygon fill="#009DE7" points="142.185,418.239 135.185,418.239 135.185,195.347 142.185,187.428 				"/>
			</g>
			<g enable-background="new    ">
				<defs>
					<path id="SVGID_29_" enable-background="new    " d="M142.185,187.428l-7,7.919c-3.204,0.396-13.32,2.069-25.955,8.352
						c-19.972,9.918-36.641,26.172-49.546,48.312l-7-1.891c14.688-26.809,32.146-42.118,53.431-52.69
						C119.678,190.68,130.688,188.851,142.185,187.428z"/>
				</defs>
				<clipPath id="SVGID_30_">
					<use xlink:href="#SVGID_29_"  overflow="visible"/>
				</clipPath>
				<g clip-path="url(#SVGID_30_)" enable-background="new    ">
					<path fill="#00608D" d="M142.185,187.428l-7,7.919c-0.063,0.008-0.129,0.016-0.198,0.025l6.517-7.859
						C141.729,187.484,141.957,187.456,142.185,187.428"/>
					<path fill="#005D89" d="M141.503,187.513l-6.517,7.859c-3.407,0.439-13.372,2.168-25.757,8.327
						c-3.762,1.868-7.405,3.96-10.93,6.275l-3.812-6.021c3.744-2.373,7.617-4.532,11.626-6.523
						C119.409,190.813,130.252,188.925,141.503,187.513"/>
					<path fill="#00608D" d="M94.488,203.952l3.812,6.021c-5.249,3.447-10.23,7.386-14.936,11.807l-4.773-5.66
						C83.62,211.492,88.911,207.485,94.488,203.952"/>
					<path fill="#006392" d="M78.591,216.12l4.773,5.66c-8.909,8.371-16.826,18.47-23.681,30.23l-7-1.891
						C60.485,235.88,69.068,224.885,78.591,216.12"/>
				</g>
			</g>
			<g>
				<polygon fill="#008CCD" points="52.684,250.12 59.684,252.011 59.684,494.235 52.684,501.235 				"/>
			</g>
			<g>
				<polygon fill="#009DE7" points="52.684,501.235 59.684,494.235 260.662,494.235 264.312,501.235 				"/>
			</g>
			<g>
				<polygon fill="#009DE7" points="264.312,501.235 260.662,494.235 275.881,472.438 281.621,476.445 				"/>
			</g>
			<g enable-background="new    ">
				<defs>
					<path id="SVGID_31_" enable-background="new    " d="M281.621,476.445l-5.74-4.007c2.062-2.943,5.428-4.699,9.02-4.699v7
						C283.595,474.739,282.369,475.378,281.621,476.445z"/>
				</defs>
				<clipPath id="SVGID_32_">
					<use xlink:href="#SVGID_31_"  overflow="visible"/>
				</clipPath>
				<g clip-path="url(#SVGID_32_)" enable-background="new    ">
					<path fill="#009DE7" d="M281.621,476.445l-5.74-4.007c2.062-2.943,5.428-4.699,9.02-4.699v7
						C283.595,474.739,282.369,475.378,281.621,476.445"/>
				</g>
			</g>
			<g>
				<polygon fill="#009DE7" points="284.9,474.739 284.9,467.739 315.185,467.739 322.185,474.739 				"/>
			</g>
			<g>
				<polygon fill="#009DE7" points="322.185,474.739 315.185,467.739 315.185,429.238 322.185,422.238 				"/>
			</g>
			<g>
				<polygon fill="#0075AC" points="322.185,422.238 315.185,429.238 307.859,429.238 307.859,422.238 				"/>
			</g>
			<g enable-background="new    ">
				<defs>
					<path id="SVGID_33_" enable-background="new    " d="M307.859,422.238v7c-4.303,0-8.2-2.502-9.999-6.408
						c-1.792-3.896-1.153-8.487,1.646-11.755l5.316,4.554c-1.019,1.187-1.252,2.873-0.604,4.274
						C304.871,421.324,306.3,422.24,307.859,422.238z"/>
				</defs>
				<clipPath id="SVGID_34_">
					<use xlink:href="#SVGID_33_"  overflow="visible"/>
				</clipPath>
				<g clip-path="url(#SVGID_34_)" enable-background="new    ">
					<path fill="#00608D" d="M307.859,422.238v7c-0.385,0-0.767-0.02-1.144-0.06l0.729-6.962
						C307.581,422.231,307.72,422.238,307.859,422.238"/>
					<path fill="#006392" d="M307.444,422.217l-0.729,6.962c-0.572-0.06-1.134-0.163-1.681-0.308l1.798-6.766
						C307.032,422.158,307.236,422.195,307.444,422.217"/>
					<path fill="#006797" d="M306.833,422.105l-1.798,6.766c-0.437-0.116-0.863-0.259-1.279-0.426l2.612-6.495
						C306.52,422.011,306.675,422.062,306.833,422.105"/>
					<path fill="#006A9C" d="M306.368,421.95l-2.612,6.495c-0.354-0.143-0.7-0.303-1.036-0.48l3.271-6.19
						C306.112,421.84,306.239,421.898,306.368,421.95"/>
					<path fill="#006DA0" d="M305.99,421.774l-3.271,6.19c-0.299-0.157-0.589-0.328-0.871-0.513l3.824-5.864
						C305.775,421.654,305.882,421.717,305.99,421.774"/>
					<path fill="#0070A5" d="M305.673,421.588l-3.824,5.864c-0.254-0.166-0.501-0.342-0.74-0.527l4.294-5.529
						C305.49,421.463,305.58,421.527,305.673,421.588"/>
					<path fill="#0073AA" d="M305.402,421.396l-4.294,5.529c-0.222-0.172-0.437-0.353-0.645-0.541l4.704-5.187
						C305.243,421.267,305.322,421.332,305.402,421.396"/>
					<path fill="#0077AE" d="M305.168,421.198l-4.704,5.186c-0.191-0.175-0.377-0.355-0.557-0.543l5.057-4.841
						C305.03,421.068,305.098,421.135,305.168,421.198"/>
					<path fill="#007AB3" d="M304.964,421l-5.057,4.841c-0.169-0.177-0.332-0.358-0.489-0.547l5.368-4.493
						C304.844,420.869,304.903,420.936,304.964,421"/>
					<path fill="#007DB8" d="M304.786,420.801l-5.368,4.493c-0.148-0.178-0.292-0.36-0.43-0.548l5.642-4.146
						C304.68,420.669,304.731,420.736,304.786,420.801"/>
					<path fill="#0080BD" d="M304.63,420.601l-5.642,4.146c-0.131-0.179-0.257-0.362-0.378-0.55l5.881-3.796
						C304.536,420.469,304.582,420.536,304.63,420.601"/>
					<path fill="#0083C1" d="M304.491,420.4l-5.881,3.796c-0.116-0.18-0.227-0.363-0.333-0.551l6.094-3.445
						C304.409,420.269,304.449,420.335,304.491,420.4"/>
					<path fill="#0087C6" d="M304.371,420.2l-6.094,3.445c-0.103-0.181-0.199-0.365-0.292-0.553l6.279-3.094
						C304.298,420.067,304.333,420.135,304.371,420.2"/>
					<path fill="#008ACB" d="M304.265,419.999l-6.279,3.094c-0.043-0.087-0.085-0.175-0.125-0.263
						c-0.045-0.097-0.087-0.193-0.129-0.29l6.441-2.741c0.015,0.035,0.03,0.07,0.046,0.104
						C304.233,419.936,304.249,419.968,304.265,419.999"/>
					<path fill="#008DCF" d="M304.173,419.799l-6.441,2.741c-0.076-0.181-0.148-0.363-0.215-0.547l6.578-2.392
						C304.119,419.668,304.145,419.734,304.173,419.799"/>
					<path fill="#0090D4" d="M304.095,419.602l-6.578,2.392c-0.066-0.181-0.127-0.362-0.183-0.546l6.694-2.042
						C304.049,419.471,304.071,419.537,304.095,419.602"/>
					<path fill="#0093D9" d="M304.028,419.405l-6.694,2.042c-0.056-0.181-0.105-0.362-0.151-0.545l6.791-1.695
						C303.99,419.273,304.009,419.34,304.028,419.405"/>
					<path fill="#0097DE" d="M303.974,419.207l-6.791,1.695c-0.045-0.182-0.086-0.363-0.121-0.546l6.868-1.347
						C303.943,419.076,303.958,419.142,303.974,419.207"/>
					<path fill="#009AE2" d="M303.93,419.01l-6.868,1.347c-0.036-0.182-0.067-0.364-0.094-0.547l6.929-0.998
						C303.906,418.878,303.917,418.943,303.93,419.01"/>
					<path fill="#009DE7" d="M303.896,418.812l-6.929,0.997c-0.444-3.088,0.439-6.282,2.538-8.733l5.316,4.554
						C304.059,416.519,303.736,417.689,303.896,418.812"/>
				</g>
			</g>
			<g enable-background="new    ">
				<defs>
					<path id="SVGID_35_" enable-background="new    " d="M78.19,111.242h7c0,32.805,26.685,59.499,59.499,59.499
						c32.805,0,59.499-26.694,59.499-59.499c0-32.815-26.694-59.509-59.499-59.509c-32.814,0-59.499,26.694-59.499,59.509H78.19
						c0.008-36.69,29.807-66.501,66.499-66.509c36.682,0.008,66.491,29.818,66.499,66.509
						c-0.008,36.681-29.817,66.491-66.499,66.499C107.998,177.733,78.198,147.922,78.19,111.242z"/>
				</defs>
				<clipPath id="SVGID_36_">
					<use xlink:href="#SVGID_35_"  overflow="visible"/>
				</clipPath>
				<g clip-path="url(#SVGID_36_)" enable-background="new    ">
					<path fill="#0073AA" d="M78.19,111.242h7c0,0.246,0.002,0.492,0.005,0.738l-7,0.087
						C78.192,111.792,78.19,111.517,78.19,111.242"/>
					<path fill="#0077AE" d="M78.195,112.066l7-0.087c0.018,1.45,0.087,2.889,0.207,4.312l-6.974,0.597
						C78.294,115.296,78.216,113.688,78.195,112.066"/>
					<path fill="#007AB3" d="M78.429,116.889l6.974-0.597c0.113,1.334,0.27,2.656,0.47,3.964l-6.919,1.064
						C78.73,119.858,78.555,118.38,78.429,116.889"/>
					<path fill="#007DB8" d="M78.953,121.32l6.919-1.064c0.19,1.248,0.42,2.483,0.687,3.705l-6.837,1.501
						C79.423,124.097,79.167,122.716,78.953,121.32"/>
					<path fill="#0080BD" d="M79.722,125.462l6.837-1.501c0.258,1.18,0.551,2.347,0.878,3.5l-6.734,1.914
						C80.337,128.085,80.01,126.781,79.722,125.462"/>
					<path fill="#0083C1" d="M80.702,129.374l6.734-1.914c0.318,1.12,0.668,2.227,1.049,3.32l-6.611,2.305
						C81.448,131.863,81.058,130.626,80.702,129.374"/>
					<path fill="#0087C6" d="M81.874,133.085l6.611-2.305c0.37,1.062,0.77,2.111,1.198,3.146l-6.471,2.675
						C82.734,135.444,82.288,134.272,81.874,133.085"/>
					<path fill="#008ACB" d="M83.213,136.601l6.471-2.675c0.417,1.009,0.862,2.004,1.333,2.985l-6.314,3.026
						C84.177,138.841,83.68,137.729,83.213,136.601"/>
					<path fill="#008DCF" d="M84.702,139.937l6.314-3.026c0.464,0.967,0.954,1.919,1.468,2.857l-6.142,3.362
						C85.769,142.082,85.221,141.017,84.702,139.937"/>
					<path fill="#0090D4" d="M86.343,143.129l6.142-3.362c0.508,0.926,1.04,1.836,1.595,2.731l-5.955,3.683
						C87.504,145.182,86.91,144.164,86.343,143.129"/>
					<path fill="#0093D9" d="M88.124,146.182l5.955-3.683c0.546,0.881,1.114,1.747,1.704,2.597l-5.755,3.988
						C89.369,148.134,88.734,147.167,88.124,146.182"/>
					<path fill="#0097DE" d="M90.028,149.083l5.755-3.988c0.587,0.845,1.194,1.674,1.823,2.486l-5.541,4.28
						C91.363,150.954,90.684,150.027,90.028,149.083"/>
					<path fill="#009AE2" d="M92.065,151.862l5.541-4.28c0.627,0.811,1.273,1.604,1.941,2.381l-5.313,4.56
						C93.489,153.654,92.766,152.768,92.065,151.862"/>
					<path fill="#009DE7" d="M94.234,154.522l5.313-4.56c10.919,12.712,27.104,20.778,45.142,20.778
						c32.805,0,59.499-26.694,59.499-59.499c0-2.828-0.198-5.611-0.582-8.334l6.931-0.984c0.429,3.045,0.65,6.156,0.651,9.318
						c-0.008,36.681-29.817,66.491-66.499,66.499C124.521,177.736,106.435,168.728,94.234,154.522"/>
					<path fill="#009AE2" d="M210.537,101.923l-6.931,0.984c-0.148-1.058-0.325-2.107-0.529-3.147l6.867-1.354
						C210.173,99.567,210.37,100.741,210.537,101.923"/>
					<path fill="#0097DE" d="M209.944,98.406l-6.867,1.354c-0.194-0.989-0.413-1.969-0.655-2.94l6.791-1.701
						C209.483,96.205,209.728,97.3,209.944,98.406"/>
					<path fill="#0093D9" d="M209.213,95.119l-6.791,1.701c-0.249-0.996-0.523-1.982-0.821-2.958l6.693-2.05
						C208.628,92.903,208.935,94.005,209.213,95.119"/>
					<path fill="#0090D4" d="M208.294,91.812l-6.693,2.05c-0.305-0.995-0.634-1.978-0.988-2.949l6.578-2.397
						C207.586,89.602,207.954,90.701,208.294,91.812"/>
					<path fill="#008DCF" d="M207.19,88.516l-6.578,2.397c-0.36-0.99-0.747-1.968-1.158-2.933l6.441-2.742
						C206.355,86.316,206.787,87.409,207.19,88.516"/>
					<path fill="#008ACB" d="M205.896,85.238l-6.441,2.742c-0.429-1.005-0.885-1.997-1.366-2.973l6.282-3.092
						C204.908,83.006,205.417,84.114,205.896,85.238"/>
					<path fill="#0087C6" d="M204.37,81.915l-6.282,3.092c-0.497-1.007-1.021-1.999-1.572-2.973l6.098-3.441
						C203.229,79.681,203.815,80.789,204.37,81.915"/>
					<path fill="#0083C1" d="M202.613,78.592l-6.098,3.441c-0.569-1.008-1.169-1.997-1.795-2.968l5.888-3.79
						C201.308,76.36,201.977,77.466,202.613,78.592"/>
					<path fill="#0080BD" d="M200.608,75.275l-5.888,3.79c-0.65-1.009-1.332-1.998-2.041-2.964l5.647-4.138
						C199.12,73.043,199.881,74.147,200.608,75.275"/>
					<path fill="#007DB8" d="M198.327,71.963l-5.647,4.138c-0.753-1.025-1.538-2.026-2.353-3l5.371-4.491
						C196.609,69.699,197.486,70.817,198.327,71.963"/>
					<path fill="#007AB3" d="M195.698,68.61l-5.371,4.491c-0.859-1.026-1.752-2.023-2.677-2.989l5.058-4.841
						C193.741,66.35,194.739,67.463,195.698,68.61"/>
					<path fill="#0077AE" d="M192.708,65.27l-5.058,4.841c-0.981-1.025-1.999-2.015-3.051-2.968l4.7-5.19
						C190.475,63.019,191.611,64.125,192.708,65.27"/>
					<path fill="#0073AA" d="M189.3,61.954l-4.7,5.19c-1.126-1.021-2.291-1.998-3.492-2.931l4.29-5.534
						C186.739,59.721,188.041,60.813,189.3,61.954"/>
					<path fill="#0070A5" d="M185.397,58.679l-4.29,5.534c-1.3-1.009-2.643-1.965-4.024-2.866l3.817-5.87
						C182.444,56.483,183.944,57.551,185.397,58.679"/>
					<path fill="#006DA0" d="M180.9,55.477l-3.817,5.87c-1.514-0.986-3.074-1.906-4.679-2.753l3.268-6.193
						C177.465,53.348,179.209,54.375,180.9,55.477"/>
					<path fill="#006A9C" d="M175.672,52.4l-3.268,6.193c-1.814-0.96-3.685-1.828-5.604-2.6l2.607-6.498
						C171.553,50.357,173.644,51.328,175.672,52.4"/>
					<path fill="#006797" d="M169.407,49.496l-2.607,6.498c-2.227-0.895-4.519-1.658-6.867-2.281l1.798-6.766
						C164.356,47.643,166.919,48.496,169.407,49.496"/>
					<path fill="#006392" d="M161.73,46.946l-1.798,6.766c-2.947-0.782-5.983-1.343-9.089-1.663l0.727-6.962
						C155.043,45.446,158.437,46.073,161.73,46.946"/>
					<path fill="#00608D" d="M151.57,45.087l-0.727,6.962c-2.023-0.209-4.077-0.316-6.154-0.316c-2.883,0-5.719,0.206-8.493,0.604
						l-1.002-6.928c3.102-0.445,6.271-0.676,9.495-0.677C147.013,44.733,149.308,44.854,151.57,45.087"/>
					<path fill="#005D89" d="M135.194,45.409l1.002,6.928c-11.087,1.591-21.196,6.25-29.438,13.086l-4.467-5.392
						C111.501,52.393,122.799,47.188,135.194,45.409"/>
					<path fill="#00608D" d="M102.292,60.031l4.467,5.392c-3.831,3.178-7.259,6.827-10.192,10.856l-5.664-4.117
						C94.182,67.659,98.011,63.582,102.292,60.031"/>
					<path fill="#006392" d="M90.902,72.162l5.664,4.117c-1.844,2.532-3.493,5.214-4.925,8.024L85.4,81.129
						C87.001,77.988,88.843,74.991,90.902,72.162"/>
					<path fill="#006797" d="M85.4,81.129l6.241,3.174c-1.106,2.171-2.084,4.418-2.921,6.732l-6.584-2.383
						C83.073,86.066,84.164,83.555,85.4,81.129"/>
					<path fill="#006A9C" d="M82.137,88.652l6.584,2.383c-0.709,1.958-1.317,3.964-1.82,6.011l-6.797-1.674
						C80.665,93.083,81.345,90.841,82.137,88.652"/>
					<path fill="#006DA0" d="M80.104,95.372l6.797,1.674c-0.431,1.756-0.784,3.543-1.056,5.356l-6.921-1.043
						C79.227,99.332,79.621,97.334,80.104,95.372"/>
					<path fill="#0070A5" d="M78.924,101.358l6.921,1.043c-0.243,1.63-0.421,3.283-0.529,4.954l-6.984-0.459
						C78.452,105.028,78.651,103.182,78.924,101.358"/>
					<path fill="#0073AA" d="M78.331,106.896l6.984,0.459c-0.083,1.285-0.125,2.581-0.125,3.886h-7
						C78.19,109.782,78.238,108.333,78.331,106.896"/>
				</g>
			</g>
			<g>
				<path fill="#009DE7" d="M397.103,316.635c0.673,1.426,0.441,3.117-0.579,4.303l-76.948,89.771
					c9.678,4.552,10.616,5.935,10.615,7.531v60.499c0.006,2.194-1.803,4.001-4.008,3.997h-39.191l-17.309,24.79
					c-0.751,1.072-1.979,1.715-3.278,1.714H48.686c-2.196,0.006-4.002-1.801-3.997-4.007V249.04c0-0.703,0.186-1.396,0.537-2.001
					l1.354-2.338c18.747-32.258,42.199-48.372,72.9-62.039c-34.234-19.76-49.296-43.861-49.296-71.42
					c-0.008-41.07,33.435-74.512,74.505-74.504c41.06-0.008,74.502,33.434,74.494,74.504c-0.001,37.191-27.399,68.103-68.993,74.53
					v228.461h94.367l-64.268-63.512c-1.558-1.531-1.584-4.065-0.058-5.628l118.983-122.385c0.744-0.769,1.769-1.204,2.816-1.21
					c1.166,0.002,2.154,0.433,2.882,1.162l15.275,15.274l23.165-23.167c0.757-0.757,1.774-1.171,2.833-1.172
					c0.23,0,0.84,0.441,0.688,0.059c1.283,0.226,2.377,1.061,2.928,2.236L397.103,316.635z M304.822,415.629l83.943-97.934
					l-43.78-93.245l-21.971,21.971c-0.748,0.749-1.771,1.172-2.825,1.172c-1.058,0.001-2.086-0.425-2.846-1.181l-15.216-15.217
					L188.739,347.823l68.362,67.565c1.156,1.143,1.507,2.864,0.893,4.37c-0.618,1.5-2.083,2.481-3.703,2.479H146.183
					c-2.201,0.004-4.002-1.796-3.998-3.999V187.428c-11.496,1.423-22.507,3.252-36.07,10.001
					c-21.285,10.573-38.742,25.881-53.431,52.69v251.116h211.629l17.309-24.79c0.748-1.067,1.974-1.706,3.279-1.706h37.284v-52.501
					h-14.325c-1.56,0.002-2.988-0.914-3.641-2.335C303.57,418.502,303.804,416.815,304.822,415.629 M78.19,111.242
					c0.008,36.681,29.808,66.491,66.499,66.499c36.682-0.008,66.491-29.817,66.499-66.499
					c-0.008-36.691-29.817-66.501-66.499-66.509C107.997,44.74,78.198,74.551,78.19,111.242"/>
			</g>
			<g enable-background="new    ">
				<defs>
					<path id="SVGID_37_" enable-background="new    " d="M397.103,316.635l6.337-2.975c1.845,3.924,1.214,8.55-1.603,11.835
						l-5.313-4.558C397.544,319.752,397.775,318.061,397.103,316.635z"/>
				</defs>
				<clipPath id="SVGID_38_">
					<use xlink:href="#SVGID_37_"  overflow="visible"/>
				</clipPath>
				<g clip-path="url(#SVGID_38_)" enable-background="new    ">
					<path fill="#008ACB" d="M397.103,316.635l6.337-2.975c0.074,0.158,0.145,0.317,0.211,0.479l-6.471,2.67
						C397.155,316.75,397.13,316.692,397.103,316.635"/>
					<path fill="#0087C6" d="M397.18,316.809l6.471-2.67c0.08,0.194,0.155,0.39,0.224,0.587l-6.612,2.297
						C397.236,316.95,397.209,316.879,397.18,316.809"/>
					<path fill="#0083C1" d="M397.262,317.022l6.612-2.297c0.071,0.204,0.137,0.41,0.195,0.617l-6.737,1.904
						C397.311,317.172,397.287,317.097,397.262,317.022"/>
					<path fill="#0080BD" d="M397.332,317.247l6.737-1.904c0.061,0.216,0.115,0.434,0.163,0.651l-6.841,1.489
						C397.374,317.404,397.354,317.325,397.332,317.247"/>
					<path fill="#007DB8" d="M397.392,317.483l6.841-1.489c0.05,0.229,0.093,0.459,0.128,0.689l-6.922,1.051
						C397.426,317.65,397.41,317.567,397.392,317.483"/>
					<path fill="#007AB3" d="M397.438,317.734l6.922-1.051c0.037,0.245,0.066,0.491,0.087,0.736l-6.978,0.583
						C397.463,317.913,397.452,317.824,397.438,317.734"/>
					<path fill="#0077AE" d="M397.47,318.003l6.978-0.583c0.022,0.264,0.035,0.526,0.038,0.789l-7.001,0.081
						C397.482,318.194,397.479,318.099,397.47,318.003"/>
					<path fill="#0073AA" d="M397.483,318.29l7.002-0.081c0.003,0.281-0.004,0.563-0.022,0.844l-6.987-0.455
						C397.482,318.495,397.485,318.393,397.483,318.29"/>
					<path fill="#0070A5" d="M397.476,318.598l6.987,0.455c-0.021,0.307-0.053,0.612-0.099,0.916l-6.924-1.037
						C397.457,318.82,397.469,318.709,397.476,318.598"/>
					<path fill="#006DA0" d="M397.44,318.932l6.924,1.037c-0.05,0.335-0.115,0.668-0.196,0.997l-6.8-1.671
						C397.398,319.175,397.422,319.054,397.44,318.932"/>
					<path fill="#006A9C" d="M397.368,319.295l6.8,1.671c-0.093,0.375-0.204,0.744-0.336,1.108l-6.585-2.377
						C397.295,319.565,397.335,319.431,397.368,319.295"/>
					<path fill="#006797" d="M397.247,319.697l6.585,2.377c-0.153,0.425-0.334,0.842-0.54,1.247l-6.241-3.171
						C397.126,320.004,397.191,319.852,397.247,319.697"/>
					<path fill="#006392" d="M397.051,320.15l6.241,3.171c-0.261,0.513-0.563,1.008-0.907,1.48l-5.663-4.114
						C396.847,320.517,396.956,320.337,397.051,320.15"/>
					<path fill="#00608D" d="M396.722,320.688l5.663,4.114c-0.173,0.237-0.355,0.468-0.548,0.693l-5.313-4.558
						C396.593,320.856,396.659,320.773,396.722,320.688"/>
				</g>
			</g>
			<g>
				<polygon fill="#0076AD" points="396.523,320.938 401.837,325.495 330.871,408.285 319.575,410.708 				"/>
			</g>
			<g enable-background="new    ">
				<defs>
					<path id="SVGID_39_" enable-background="new    " d="M319.575,410.708l11.296-2.423c3.735,1.757,6.319,5.555,6.319,9.954h-7
						C330.191,416.643,329.253,415.26,319.575,410.708z"/>
				</defs>
				<clipPath id="SVGID_40_">
					<use xlink:href="#SVGID_39_"  overflow="visible"/>
				</clipPath>
				<g clip-path="url(#SVGID_40_)" enable-background="new    ">
					<path fill="#009DE7" d="M319.575,410.708l11.296-2.423c2.058,0.968,3.766,2.555,4.885,4.52l-6.84,3.105
						C327.584,414.761,324.905,413.215,319.575,410.708"/>
					<path fill="#009AE2" d="M328.916,415.91l6.84-3.105c0.065,0.115,0.129,0.23,0.19,0.348l-6.811,2.955
						C329.066,416.043,328.993,415.978,328.916,415.91"/>
					<path fill="#0097DE" d="M329.136,416.107l6.811-2.955c0.061,0.116,0.118,0.232,0.175,0.351l-6.795,2.792
						C329.267,416.233,329.203,416.171,329.136,416.107"/>
					<path fill="#0093D9" d="M329.326,416.295l6.795-2.792c0.056,0.116,0.108,0.232,0.16,0.351l-6.79,2.618
						C329.439,416.414,329.385,416.354,329.326,416.295"/>
					<path fill="#0090D4" d="M329.491,416.472l6.79-2.618c0.052,0.118,0.101,0.237,0.147,0.356l-6.795,2.434
						C329.589,416.587,329.542,416.53,329.491,416.472"/>
					<path fill="#008DCF" d="M329.634,416.644l6.795-2.434c0.048,0.121,0.094,0.243,0.137,0.366l-6.809,2.235
						C329.719,416.756,329.678,416.7,329.634,416.644"/>
					<path fill="#008ACB" d="M329.757,416.812l6.809-2.235c0.044,0.125,0.086,0.252,0.126,0.379l-6.828,2.022
						C329.831,416.923,329.796,416.867,329.757,416.812"/>
					<path fill="#0087C6" d="M329.863,416.978l6.828-2.022c0.042,0.133,0.081,0.268,0.118,0.402l-6.854,1.79
						C329.928,417.092,329.897,417.035,329.863,416.978"/>
					<path fill="#0083C1" d="M329.955,417.147l6.854-1.79c0.037,0.141,0.073,0.283,0.105,0.426l-6.883,1.536
						C330.01,417.263,329.984,417.205,329.955,417.147"/>
					<path fill="#0080BD" d="M330.032,417.319l6.883-1.536c0.035,0.154,0.067,0.309,0.096,0.465l-6.916,1.254
						C330.077,417.441,330.057,417.381,330.032,417.319"/>
					<path fill="#007DB8" d="M330.095,417.502l6.916-1.254c0.032,0.175,0.06,0.351,0.083,0.528l-6.95,0.926
						C330.131,417.636,330.114,417.569,330.095,417.502"/>
					<path fill="#007AB3" d="M330.144,417.702l6.95-0.926c0.027,0.2,0.048,0.402,0.063,0.606l-6.98,0.544
						C330.169,417.853,330.158,417.777,330.144,417.702"/>
					<path fill="#0077AE" d="M330.177,417.927l6.98-0.544c0.019,0.239,0.029,0.48,0.032,0.725l-6.999,0.084
						C330.189,418.103,330.185,418.015,330.177,417.927"/>
					<path fill="#0073AA" d="M330.19,418.191l6.999-0.084c0.001,0.044,0.001,0.088,0.001,0.132h-7
						C330.19,418.224,330.19,418.207,330.19,418.191"/>
				</g>
			</g>
			<g>
				<rect x="330.19" y="418.239" fill="#008CCD" width="7" height="60.499"/>
			</g>
		</g>
	</g>
</g>
</svg>
